<svg xmlns="http://www.w3.org/2000/svg" viewBox="0 0 1024 1024">
<g transform="translate(0,1024) scale(0.1,-0.1)" fill="#e8a32e" stroke="none">
<path d="M4780 10229 c-712 -57 -1271 -205
-1890 -501 -423 -202 -852 -491 -1199 -806 -831 -755 -1382 -1728 -1595 -2817
-69 -353 -91 -599 -90 -995 1 -493 46 -843 170 -1320 53 -204 153 -498 226
-665 256 -585 571 -1067 987 -1510 174 -185 514 -488 680 -606 461 -327 788
-506 1236 -677 679 -259 1476 -374 2195 -317 694 55 1316 227 1923 531 494
248 915 553 1322 959 201 200 319 336 480 550 448 595 759 1286 909 2020 69
340 96 591 103 965 8 418 -20 723 -103 1120 -131 626 -368 1208 -710 1740 -67
104 -257 362 -364 494 -205 252 -559 591 -845 807 -279 211 -500 347 -840 517
-446 222 -1019 402 -1485 466 -335 46 -841 67 -1110 45z"/>
<path fill="#1a1a1a" d="M5570 8975 c516 -61 985 -222 1342
-458 223 -148 377 -291 521 -486 218 -292 330 -589 393 -1038 22 -157 30 -608
14 -809 l-12 -164 66 -61 c51 -47 75 -79 103 -137 51 -107 53 -178 14 -532
-17 -151 -43 -381 -56 -510 -16 -144 -33 -258 -45 -294 -53 -161 -195 -286
-361 -320 -55 -11 -61 -15 -125 -91 -37 -44 -107 -120 -155 -170 l-89 -90 -15
-90 c-21 -123 -81 -343 -121 -441 -75 -188 -224 -444 -332 -574 -75 -90 -251
-267 -338 -340 -95 -80 -295 -213 -380 -253 -40 -19 -68 -41 -84 -65 -127
-187 -367 -417 -654 -626 l-118 -86 -32 19 c-75 47 -282 208 -398 309 -131
115 -266 260 -326 350 -31 47 -48 60 -126 99 -105 53 -269 161 -364 240 -405
337 -662 745 -776 1233 -13 58 -41 202 -60 320 -48 285 -42 263 -72 256 -14
-4 -78 -7 -142 -7 -164 -1 -256 31 -362 127 -48 43 -105 128 -126 186 -23 64
-136 1093 -131 1195 3 70 9 93 40 156 34 69 109 155 160 183 17 10 17 19 6
150 -18 210 -16 609 5 788 52 448 176 790 395 1084 87 116 294 322 411 409
438 323 980 505 1665 557 111 8 537 -4 665 -19z"/>
<path fill="#e8a32e" d="M4850 8833 c-363 -36 -673 -105 -940
-210 -579 -227 -1001 -624 -1183 -1113 -72 -194 -116 -397 -138 -633 -11 -124
-9 -760 3 -772 2 -3 29 -2 59 3 l54 8 -2 60 -2 60 147 80 c630 339 1135 510
1738 588 403 53 937 34 1351 -49 491 -98 952 -266 1443 -527 l171 -90 -7 -58
-6 -57 63 -12 c44 -7 66 -8 74 0 6 6 10 134 10 367 0 374 -9 491 -55 707 -100
478 -347 869 -715 1135 -476 343 -1106 524 -1814 518 -119 0 -232 -3 -251 -5z"/>
<path fill="#1a1a1a" d="M5308 8800 c87 -30 141 -74 177 -142
l29 -57 61 -6 c442 -46 1008 -220 1401 -430 200 -107 294 -229 328 -426 31
-183 76 -461 96 -592 11 -72 29 -190 41 -262 11 -71 31 -196 43 -277 l22 -148
-170 89 c-620 321 -1213 510 -1808 577 -192 22 -655 25 -838 6 -577 -61 -1177
-241 -1763 -529 -93 -46 -170 -83 -171 -83 -3 0 9 86 49 335 33 200 93 577
135 842 30 189 92 310 199 386 128 92 453 241 723 331 241 80 599 160 811 182
l68 6 23 52 c35 78 107 129 231 162 73 20 233 11 313 -16z"/>
<path fill="#e8a32e" d="M3020 6167 c0 -8 9 -66 20 -128 10 -63
26 -166 35 -229 8 -63 22 -153 30 -200 8 -47 30 -191 49 -320 20 -129 54 -354
76 -500 22 -146 61 -400 85 -565 84 -565 121 -704 252 -970 154 -312 410 -590
715 -779 85 -52 206 -105 328 -141 96 -29 286 -62 296 -52 4 4 2 89 -5 190 -7
100 -15 221 -18 270 l-6 87 251 0 c138 0 253 -3 255 -7 2 -5 -2 -66 -9 -138
-7 -71 -16 -192 -20 -268 l-7 -137 30 0 c108 0 347 70 498 145 156 78 278 169
441 330 195 192 315 361 408 573 32 73 49 137 28 106 -12 -18 -167 -130 -264
-190 -134 -83 -310 -166 -421 -199 -74 -22 -99 -34 -103 -50 -11 -34 -44 -74
-73 -90 -33 -17 -374 -52 -413 -42 -37 10 -88 55 -104 94 -21 49 -17 119 8
165 36 63 68 77 225 93 231 25 286 17 334 -43 l20 -26 72 23 c125 41 261 106
392 190 154 99 412 294 419 319 8 25 63 338 71 402 7 60 87 591 135 900 51
327 89 575 120 789 17 113 37 242 46 288 24 129 20 135 -49 74 -81 -71 -238
-195 -312 -247 -92 -64 -112 -65 -285 -4 -303 107 -678 195 -985 232 -171 20
-753 17 -925 -5 -282 -37 -647 -122 -920 -214 -166 -56 -239 -64 -298 -34 -51
26 -231 161 -327 246 -84 74 -95 81 -95 62z"/>
<path fill="#1a1a1a" d="M4127 5705 c29 -9 146 -54 260 -102
399 -165 444 -183 461 -183 10 0 42 21 72 48 l55 47 -25 -41 c-14 -23 -50 -82
-80 -133 -30 -50 -59 -91 -65 -91 -5 0 -35 12 -65 26 -67 32 -182 75 -187 70
-5 -5 41 -62 106 -128 30 -32 53 -59 50 -62 -2 -2 -49 25 -104 60 -55 35 -105
64 -111 64 -5 0 -25 -16 -44 -35 -94 -97 -255 -79 -319 35 -19 34 -22 51 -18
108 2 37 6 76 8 87 3 17 -5 21 -61 32 -100 20 -270 18 -372 -5 l-87 -20 31 47
c67 100 152 172 226 191 50 13 205 4 269 -15z"/>
<path fill="#1a1a1a" d="M6401 5714 c58 -17 97 -43 150 -98 34
-37 89 -114 89 -126 0 -4 -24 -1 -52 7 -128 33 -321 35 -435 4 -30 -8 -30 -7
-17 -93 10 -73 -10 -131 -62 -177 -81 -71 -185 -68 -269 10 -23 21 -46 39 -51
39 -5 0 -47 -23 -94 -51 -125 -75 -129 -76 -79 -23 51 54 119 138 119 146 0 6
-105 -36 -190 -76 -30 -14 -60 -26 -67 -26 -14 0 -143 212 -143 234 0 4 22
-10 49 -29 26 -19 54 -35 62 -35 7 0 81 29 163 64 83 35 196 83 251 106 308
130 450 161 576 124z"/>
<path fill="#1a1a1a" d="M4872 4364 c256 -89 245 -86 302 -70
28 8 116 37 196 65 79 28 150 49 157 46 15 -5 53 -88 53 -115 0 -19 -87 -72
-297 -182 -151 -78 -163 -78 -325 5 -67 35 -161 86 -208 113 -74 43 -85 53
-82 74 6 43 40 110 56 110 8 0 75 -21 148 -46z"/>
<path fill="#1a1a1a" d="M6069 3859 c-57 -114 -110 -191 -188
-273 -135 -140 -262 -200 -472 -221 -166 -17 -400 48 -664 185 -55 29 -200
104 -322 166 -123 63 -215 114 -205 114 32 0 254 -49 336 -74 44 -14 169 -55
276 -91 267 -90 375 -117 496 -123 242 -11 468 90 684 307 52 53 96 95 98 95
2 -1 -16 -40 -39 -85z"/>
<path fill="#e8a32e" d="M7230 4113 c-6 -32 -13 -64 -15 -70 -9
-28 14 -10 64 47 29 33 49 64 46 70 -3 5 -24 10 -45 10 l-39 0 -11 -57z"/>
</g>
</svg>
